<?xml version="1.0" encoding="utf-8"?>
<!-- Generator: Adobe Illustrator 22.1.0, SVG Export Plug-In . SVG Version: 6.00 Build 0)  -->
<svg version="1.1" id="Capa_1" xmlns="http://www.w3.org/2000/svg" xmlns:xlink="http://www.w3.org/1999/xlink" x="0px" y="0px"
	 viewBox="0 0 379.5 80" style="enable-background:new 0 0 379.5 80;" xml:space="preserve">
<style type="text/css">
	.st0{fill:#4D4D4D;}
</style>
<g>
	<path class="st0" d="M61.3,58.7l-15.1,1.9l-1.8-6.9h-6.9l-1.5,6.9l-15.5-1.5l12.1-40.5l16.9-0.9L61.3,58.7z M43.3,44.4L41,33.9
		l-2.2,10.6H43.3z"/>
	<path class="st0" d="M88.5,45.2l-1.3,13.5l-25.6,2l1-43.4h15.8l-2.2,27.9H88.5z"/>
	<path class="st0" d="M116.6,45.2l-1.3,13.5l-25.6,2l1-43.4h15.8l-2.2,27.9H116.6z"/>
	<path class="st0" d="M155.6,38c0,1.8-0.2,3.6-0.6,5.3c-0.4,1.7-1,3.3-1.8,4.8c-0.8,1.5-1.8,2.9-2.9,4.1c-1.1,1.2-2.4,2.3-3.9,3.2
		c-1.4,0.9-3,1.6-4.7,2.1c-1.7,0.5-3.5,0.7-5.3,0.7c-1.8,0-3.6-0.2-5.2-0.7c-1.7-0.5-3.2-1.1-4.6-2c-1.4-0.8-2.7-1.9-3.9-3
		c-1.2-1.2-2.2-2.5-3-4c-0.8-1.4-1.5-3-1.9-4.7c-0.5-1.7-0.7-3.4-0.7-5.2c0-1.8,0.2-3.5,0.6-5.2c0.4-1.7,1-3.3,1.8-4.8
		c0.8-1.5,1.8-2.9,2.9-4.1c1.1-1.3,2.4-2.3,3.8-3.3c1.4-0.9,2.9-1.6,4.6-2.1c1.6-0.5,3.4-0.8,5.2-0.8c2.9,0,5.6,0.5,8,1.4
		c2.4,0.9,4.5,2.2,6.2,3.9c1.7,1.7,3,3.7,4,6.1C155.1,32.4,155.6,35,155.6,38z M142.1,38.8c0-0.9-0.1-1.7-0.4-2.5
		c-0.3-0.8-0.6-1.5-1.1-2.2c-0.5-0.6-1.1-1.2-1.8-1.5c-0.7-0.4-1.5-0.6-2.5-0.6c-1,0-1.8,0.2-2.6,0.5c-0.7,0.3-1.4,0.8-1.9,1.4
		c-0.5,0.6-0.9,1.3-1.2,2.1c-0.3,0.8-0.4,1.6-0.4,2.5c0,0.9,0.1,1.7,0.4,2.6c0.2,0.9,0.6,1.6,1.1,2.3c0.5,0.7,1.1,1.2,1.8,1.7
		c0.7,0.4,1.6,0.6,2.5,0.6c1,0,1.8-0.2,2.6-0.6c0.8-0.4,1.4-0.9,1.9-1.5c0.5-0.6,0.9-1.4,1.2-2.2C142,40.5,142.1,39.7,142.1,38.8z"
		/>
	<path class="st0" d="M188.9,45.7c0,2.8-0.5,5.2-1.4,7.2c-1,2-2.3,3.7-4,5s-3.6,2.3-5.9,2.9c-2.2,0.6-4.6,0.9-7.2,0.9
		c-1,0-2.1-0.1-3.3-0.4c-1.2-0.3-2.4-0.6-3.6-1c-1.2-0.4-2.4-0.8-3.5-1.3c-1.1-0.5-2.1-0.9-3-1.3l1.3-11.9c1.7,1,3.6,1.8,5.7,2.4
		c2.1,0.5,4.2,0.8,6.2,0.8c0.4,0,0.9,0,1.4,0c0.5,0,1.1-0.1,1.6-0.3c0.5-0.2,0.9-0.4,1.3-0.7c0.3-0.3,0.5-0.7,0.5-1.3
		c0-0.4-0.1-0.7-0.4-1c-0.2-0.3-0.6-0.5-0.9-0.7c-0.4-0.2-0.8-0.3-1.3-0.4c-0.5-0.1-1-0.2-1.4-0.2c-0.5,0-0.9-0.1-1.3-0.1
		c-0.4,0-0.7,0-1,0c-1.7,0-3.3-0.3-4.8-0.8c-1.4-0.5-2.7-1.3-3.7-2.3c-1-1-1.8-2.2-2.4-3.6c-0.6-1.4-0.9-3-0.9-4.8
		c0-2.4,0.5-4.5,1.4-6.4c1-1.9,2.2-3.5,3.9-4.8c1.6-1.3,3.5-2.3,5.5-3.1c2.1-0.7,4.2-1.1,6.5-1.1c1,0,2,0,3.1,0.1
		c1.1,0.1,2.1,0.2,3.1,0.4c1,0.2,2.1,0.4,3.1,0.7c1,0.3,1.9,0.6,2.8,1.1L185.3,32c-1.4-0.5-2.8-0.9-4.3-1.2c-1.5-0.3-3-0.5-4.4-0.5
		c-0.3,0-0.6,0-1,0c-0.4,0-0.9,0-1.3,0.1c-0.5,0.1-0.9,0.1-1.4,0.2c-0.5,0.1-0.9,0.2-1.2,0.4c-0.4,0.2-0.7,0.4-0.9,0.7
		c-0.2,0.3-0.3,0.6-0.3,1c0,0.4,0.2,0.8,0.5,1c0.3,0.2,0.7,0.4,1.2,0.5c0.5,0.1,1,0.2,1.6,0.2c0.6,0,1.2,0,1.8,0
		c0.6,0,1.1-0.1,1.6-0.1c0.5,0,0.9,0,1.2,0c1.6,0.1,3.1,0.4,4.4,1c1.3,0.6,2.4,1.4,3.3,2.3c0.9,1,1.6,2.1,2.1,3.5
		C188.6,42.6,188.9,44.1,188.9,45.7z"/>
	<path class="st0" d="M225.3,37.1c0,2.8-0.4,5.4-1.1,7.6c-0.7,2.2-1.7,4.2-3.1,6c-1.3,1.7-2.9,3.2-4.7,4.4c-1.8,1.2-3.8,2.2-5.9,3
		c-2.1,0.8-4.4,1.4-6.9,1.7c-2.4,0.4-4.9,0.5-7.5,0.5c-1,0-1.9,0-2.8-0.1c-0.9-0.1-1.8-0.1-2.8-0.2l0.9-39.6
		c2.2-0.7,4.5-1.2,6.9-1.5c2.4-0.3,4.7-0.4,7-0.4c2.9,0,5.6,0.4,8,1.2c2.4,0.8,4.5,2,6.3,3.6c1.8,1.6,3.1,3.5,4.1,5.8
		C224.8,31.5,225.3,34.1,225.3,37.1z M204.6,48.8c1.2-0.2,2.3-0.6,3.3-1.1c1-0.6,1.9-1.2,2.6-2.1c0.7-0.8,1.3-1.8,1.7-2.8
		c0.4-1,0.6-2.2,0.6-3.3c0-1.2-0.1-2.2-0.4-3.2c-0.2-1-0.6-1.9-1.2-2.6c-0.5-0.7-1.3-1.3-2.2-1.8c-0.9-0.4-2-0.7-3.3-0.7L204.6,48.8
		z"/>
	<path class="st0" d="M262.8,32c0,1.6-0.1,3-0.4,4.3c-0.3,1.3-0.7,2.5-1.3,3.5c-0.6,1.1-1.3,2.1-2.3,3c-0.9,0.9-2.1,1.8-3.4,2.6
		l7.2,12.9L249,61L244.3,48l-3.8,0.1L240,60.8h-13.1c0.1-4.6,0.2-9.2,0.3-13.8c0.1-4.6,0.2-9.2,0.3-13.8c0-2.3,0.1-4.6,0.1-6.9
		c0-2.3,0.1-4.6,0.2-6.9c1.4-0.5,2.8-1,4.2-1.3c1.4-0.3,2.8-0.6,4.1-0.8c1.4-0.2,2.8-0.3,4.2-0.4c1.4-0.1,2.9-0.1,4.4-0.1
		c2.3,0,4.5,0.3,6.7,1c2.2,0.6,4.1,1.6,5.7,2.9c1.7,1.3,3,2.9,4,4.8C262.3,27.2,262.8,29.4,262.8,32z M249.1,33
		c0-0.9-0.1-1.6-0.3-2.3c-0.2-0.7-0.6-1.3-1-1.8c-0.5-0.5-1-0.9-1.7-1.2c-0.7-0.3-1.5-0.4-2.4-0.4c-0.4,0-0.8,0-1.2,0.1
		c-0.4,0.1-0.8,0.1-1.1,0.2l-0.5,11.3h0.7c0.9,0,1.8-0.1,2.7-0.3c0.9-0.2,1.7-0.6,2.4-1c0.7-0.5,1.3-1.1,1.8-1.8
		C248.9,34.8,249.1,34,249.1,33z"/>
	<path class="st0" d="M303.2,58.7l-15.1,1.9l-1.8-6.9h-6.9l-1.5,6.9l-15.5-1.5l12.1-40.5l16.9-0.9L303.2,58.7z M285.2,44.4
		l-2.3-10.6l-2.2,10.6H285.2z"/>
	<path class="st0" d="M356.5,19.1L349.4,60l-17.3,0.4l-3.7-20.6l-3.7,19l-17.3,0.6l-7.2-39.1l15.1-1.3l3,24l4.1-22.2h11.9l4.7,22.5
		l2.4-25.5L356.5,19.1z"/>
</g>
</svg>
